<svg width="1305" height="173" viewBox="0 0 1305 173" fill="none" xmlns="http://www.w3.org/2000/svg">
<g filter="url(#filter0_d_15_880)">
<rect x="0.607739" y="1.14375" width="1303.69" height="171.554" rx="11.7" fill="url(#paint0_linear_15_880)" fill-opacity="0.3" stroke="#D5D5D5" stroke-width="0.6"/>
<path d="M48.1432 84.6354C47.2578 84.6354 46.4472 84.5234 45.7112 84.2994C44.9752 84.0647 44.3512 83.7394 43.8392 83.3234L44.3672 82.0114C44.9005 82.4167 45.4712 82.7207 46.0792 82.9234C46.6872 83.1261 47.3752 83.2274 48.1432 83.2274C49.0498 83.2274 49.7165 83.0674 50.1432 82.7474C50.5805 82.4167 50.7992 81.9901 50.7992 81.4674C50.7992 81.0407 50.6445 80.7047 50.3352 80.4594C50.0258 80.2034 49.5085 80.0007 48.7832 79.8514L47.0712 79.4994C46.0578 79.2861 45.3005 78.9341 44.7992 78.4434C44.3085 77.9527 44.0632 77.2914 44.0632 76.4594C44.0632 75.7874 44.2392 75.1954 44.5912 74.6834C44.9538 74.1714 45.4552 73.7767 46.0952 73.4994C46.7352 73.2114 47.4712 73.0674 48.3032 73.0674C49.0712 73.0674 49.7805 73.1847 50.4312 73.4194C51.0925 73.6434 51.6525 73.9741 52.1112 74.4114L51.5672 75.6754C50.6605 74.8754 49.5672 74.4754 48.2872 74.4754C47.4978 74.4754 46.8685 74.6514 46.3992 75.0034C45.9405 75.3554 45.7112 75.8247 45.7112 76.4114C45.7112 76.8594 45.8552 77.2167 46.1432 77.4834C46.4312 77.7501 46.9112 77.9527 47.5832 78.0914L49.2792 78.4434C50.3458 78.6674 51.1405 79.0141 51.6632 79.4834C52.1858 79.9421 52.4472 80.5661 52.4472 81.3554C52.4472 82.0167 52.2712 82.5927 51.9192 83.0834C51.5672 83.5741 51.0712 83.9581 50.4312 84.2354C49.7912 84.5021 49.0285 84.6354 48.1432 84.6354ZM54.1603 84.4914V73.2114H55.7763V77.8994C56.043 77.4514 56.4003 77.1154 56.8483 76.8914C57.307 76.6567 57.819 76.5394 58.3843 76.5394C60.2296 76.5394 61.1523 77.5847 61.1523 79.6754V84.4914H59.5363V79.7714C59.5363 79.0994 59.403 78.6087 59.1363 78.2994C58.8803 77.9901 58.475 77.8354 57.9203 77.8354C57.2696 77.8354 56.747 78.0434 56.3523 78.4594C55.9683 78.8647 55.7763 79.4034 55.7763 80.0754V84.4914H54.1603ZM66.771 84.6354C65.9817 84.6354 65.299 84.4701 64.723 84.1394C64.147 83.8087 63.699 83.3447 63.379 82.7474C63.0697 82.1394 62.915 81.4194 62.915 80.5874C62.915 79.7554 63.0697 79.0407 63.379 78.4434C63.699 77.8354 64.147 77.3661 64.723 77.0354C65.299 76.7047 65.9817 76.5394 66.771 76.5394C67.539 76.5394 68.211 76.7047 68.787 77.0354C69.363 77.3661 69.811 77.8354 70.131 78.4434C70.451 79.0407 70.611 79.7554 70.611 80.5874C70.611 81.4194 70.451 82.1394 70.131 82.7474C69.811 83.3447 69.363 83.8087 68.787 84.1394C68.211 84.4701 67.539 84.6354 66.771 84.6354ZM66.771 83.3874C67.4324 83.3874 67.9657 83.1474 68.371 82.6674C68.7764 82.1874 68.979 81.4941 68.979 80.5874C68.979 79.6807 68.7764 78.9927 68.371 78.5234C67.9657 78.0434 67.4324 77.8034 66.771 77.8034C66.099 77.8034 65.5604 78.0434 65.155 78.5234C64.7497 78.9927 64.547 79.6807 64.547 80.5874C64.547 81.4941 64.7497 82.1874 65.155 82.6674C65.5604 83.1474 66.099 83.3874 66.771 83.3874ZM72.4259 87.3714V76.6834H74.0099V78.0114C74.2339 77.5634 74.5753 77.2061 75.0339 76.9394C75.4926 76.6727 76.0206 76.5394 76.6179 76.5394C77.3113 76.5394 77.9139 76.7047 78.4259 77.0354C78.9486 77.3661 79.3486 77.8354 79.6259 78.4434C79.9139 79.0407 80.0579 79.7554 80.0579 80.5874C80.0579 81.4194 79.9139 82.1394 79.6259 82.7474C79.3486 83.3554 78.9486 83.8247 78.4259 84.1554C77.9139 84.4754 77.3113 84.6354 76.6179 84.6354C76.0419 84.6354 75.5246 84.5127 75.0659 84.2674C74.6179 84.0114 74.2766 83.6647 74.0419 83.2274V87.3714H72.4259ZM76.2179 83.3874C76.8899 83.3874 77.4233 83.1474 77.8179 82.6674C78.2233 82.1874 78.4259 81.4941 78.4259 80.5874C78.4259 79.6807 78.2233 78.9927 77.8179 78.5234C77.4233 78.0434 76.8899 77.8034 76.2179 77.8034C75.5459 77.8034 75.0073 78.0434 74.6019 78.5234C74.2073 78.9927 74.0099 79.6807 74.0099 80.5874C74.0099 81.4941 74.2073 82.1874 74.6019 82.6674C75.0073 83.1474 75.5459 83.3874 76.2179 83.3874ZM81.879 87.3714V76.6834H83.463V78.0114C83.687 77.5634 84.0284 77.2061 84.487 76.9394C84.9457 76.6727 85.4737 76.5394 86.071 76.5394C86.7644 76.5394 87.367 76.7047 87.879 77.0354C88.4017 77.3661 88.8017 77.8354 89.079 78.4434C89.367 79.0407 89.511 79.7554 89.511 80.5874C89.511 81.4194 89.367 82.1394 89.079 82.7474C88.8017 83.3554 88.4017 83.8247 87.879 84.1554C87.367 84.4754 86.7644 84.6354 86.071 84.6354C85.495 84.6354 84.9777 84.5127 84.519 84.2674C84.071 84.0114 83.7297 83.6647 83.495 83.2274V87.3714H81.879ZM85.671 83.3874C86.343 83.3874 86.8764 83.1474 87.271 82.6674C87.6764 82.1874 87.879 81.4941 87.879 80.5874C87.879 79.6807 87.6764 78.9927 87.271 78.5234C86.8764 78.0434 86.343 77.8034 85.671 77.8034C84.999 77.8034 84.4604 78.0434 84.055 78.5234C83.6604 78.9927 83.463 79.6807 83.463 80.5874C83.463 81.4941 83.6604 82.1874 84.055 82.6674C84.4604 83.1474 84.999 83.3874 85.671 83.3874ZM91.1882 74.8754V73.1954H93.0762V74.8754H91.1882ZM91.3322 84.4914V76.6834H92.9482V84.4914H91.3322ZM95.2228 84.4914V76.6834H96.7908V77.9794C97.0575 77.5101 97.4201 77.1527 97.8788 76.9074C98.3481 76.6621 98.8708 76.5394 99.4468 76.5394C101.292 76.5394 102.215 77.5847 102.215 79.6754V84.4914H100.599V79.7714C100.599 79.0994 100.465 78.6087 100.199 78.2994C99.9428 77.9901 99.5375 77.8354 98.9828 77.8354C98.3321 77.8354 97.8095 78.0434 97.4148 78.4594C97.0308 78.8647 96.8388 79.4034 96.8388 80.0754V84.4914H95.2228ZM107.978 87.5154C107.274 87.5154 106.618 87.4301 106.01 87.2594C105.402 87.0994 104.863 86.8434 104.394 86.4914L104.89 85.3394C105.359 85.6594 105.839 85.8941 106.33 86.0434C106.82 86.1927 107.332 86.2674 107.866 86.2674C109.359 86.2674 110.106 85.5207 110.106 84.0274V82.7954C109.882 83.2647 109.53 83.6327 109.05 83.8994C108.58 84.1661 108.052 84.2994 107.466 84.2994C106.762 84.2994 106.148 84.1394 105.626 83.8194C105.103 83.4887 104.698 83.0354 104.41 82.4594C104.122 81.8727 103.978 81.1901 103.978 80.4114C103.978 79.6434 104.122 78.9714 104.41 78.3954C104.698 77.8087 105.103 77.3554 105.626 77.0354C106.148 76.7047 106.762 76.5394 107.466 76.5394C108.063 76.5394 108.596 76.6727 109.066 76.9394C109.535 77.2061 109.882 77.5741 110.106 78.0434V76.6834H111.674V83.8354C111.674 85.0621 111.359 85.9794 110.73 86.5874C110.1 87.2061 109.183 87.5154 107.978 87.5154ZM107.85 83.0354C108.532 83.0354 109.076 82.8007 109.482 82.3314C109.887 81.8621 110.09 81.2221 110.09 80.4114C110.09 79.6007 109.887 78.9661 109.482 78.5074C109.076 78.0381 108.532 77.8034 107.85 77.8034C107.167 77.8034 106.623 78.0381 106.218 78.5074C105.812 78.9661 105.61 79.6007 105.61 80.4114C105.61 81.2221 105.812 81.8621 106.218 82.3314C106.623 82.8007 107.167 83.0354 107.85 83.0354ZM120.257 84.4914L117.281 76.6834H118.945L121.041 82.6034L123.201 76.6834H124.449L126.577 82.6354L128.705 76.6834H130.289L127.313 84.4914H125.841L123.777 78.9074L121.729 84.4914H120.257ZM131.532 74.8754V73.1954H133.42V74.8754H131.532ZM131.676 84.4914V76.6834H133.292V84.4914H131.676ZM138.895 84.6354C137.913 84.6354 137.183 84.3847 136.703 83.8834C136.223 83.3821 135.983 82.6567 135.983 81.7074V77.9314H134.463V76.6834H135.983V74.3314H137.599V76.6834H140.015V77.9314H137.599V81.5794C137.599 82.1447 137.716 82.5714 137.951 82.8594C138.196 83.1474 138.591 83.2914 139.135 83.2914C139.305 83.2914 139.471 83.2754 139.631 83.2434C139.791 83.2007 139.951 83.1527 140.111 83.0994L140.367 84.3154C140.207 84.4114 139.983 84.4861 139.695 84.5394C139.417 84.6034 139.151 84.6354 138.895 84.6354ZM141.41 84.4914V73.2114H143.026V77.8994C143.293 77.4514 143.65 77.1154 144.098 76.8914C144.557 76.6567 145.069 76.5394 145.634 76.5394C147.48 76.5394 148.402 77.5847 148.402 79.6754V84.4914H146.786V79.7714C146.786 79.0994 146.653 78.6087 146.386 78.2994C146.13 77.9901 145.725 77.8354 145.17 77.8354C144.52 77.8354 143.997 78.0434 143.602 78.4594C143.218 78.8647 143.026 79.4034 143.026 80.0754V84.4914H141.41ZM155.008 84.4914V73.2114H159.712C160.886 73.2114 161.792 73.4727 162.432 73.9954C163.083 74.5074 163.408 75.2274 163.408 76.1554C163.408 76.7634 163.248 77.2861 162.928 77.7234C162.608 78.1607 162.171 78.4807 161.616 78.6834C162.267 78.8541 162.774 79.1687 163.136 79.6274C163.499 80.0861 163.68 80.6674 163.68 81.3714C163.68 82.3741 163.344 83.1474 162.672 83.6914C162.011 84.2247 161.088 84.4914 159.904 84.4914H155.008ZM156.608 78.1394H159.456C161.014 78.1394 161.792 77.5314 161.792 76.3154C161.792 75.0994 161.014 74.4914 159.456 74.4914H156.608V78.1394ZM156.608 83.2114H159.712C161.28 83.2114 162.064 82.5767 162.064 81.3074C162.064 80.0487 161.28 79.4194 159.712 79.4194H156.608V83.2114ZM165.738 84.4914V76.6834H167.306V78.0754C167.712 77.1474 168.554 76.6301 169.834 76.5234L170.362 76.4914L170.474 77.8674L169.498 77.9634C168.08 78.1021 167.37 78.8327 167.37 80.1554V84.4914H165.738ZM174.99 84.6354C174.2 84.6354 173.518 84.4701 172.942 84.1394C172.366 83.8087 171.918 83.3447 171.598 82.7474C171.288 82.1394 171.134 81.4194 171.134 80.5874C171.134 79.7554 171.288 79.0407 171.598 78.4434C171.918 77.8354 172.366 77.3661 172.942 77.0354C173.518 76.7047 174.2 76.5394 174.99 76.5394C175.758 76.5394 176.43 76.7047 177.006 77.0354C177.582 77.3661 178.03 77.8354 178.35 78.4434C178.67 79.0407 178.83 79.7554 178.83 80.5874C178.83 81.4194 178.67 82.1394 178.35 82.7474C178.03 83.3447 177.582 83.8087 177.006 84.1394C176.43 84.4701 175.758 84.6354 174.99 84.6354ZM174.99 83.3874C175.651 83.3874 176.184 83.1474 176.59 82.6674C176.995 82.1874 177.198 81.4941 177.198 80.5874C177.198 79.6807 176.995 78.9927 176.59 78.5234C176.184 78.0434 175.651 77.8034 174.99 77.8034C174.318 77.8034 173.779 78.0434 173.374 78.5234C172.968 78.9927 172.766 79.6807 172.766 80.5874C172.766 81.4941 172.968 82.1874 173.374 82.6674C173.779 83.1474 174.318 83.3874 174.99 83.3874ZM183.895 84.6354C182.913 84.6354 182.183 84.3847 181.703 83.8834C181.223 83.3821 180.983 82.6567 180.983 81.7074V77.9314H179.463V76.6834H180.983V74.3314H182.599V76.6834H185.015V77.9314H182.599V81.5794C182.599 82.1447 182.716 82.5714 182.951 82.8594C183.196 83.1474 183.591 83.2914 184.135 83.2914C184.305 83.2914 184.471 83.2754 184.631 83.2434C184.791 83.2007 184.951 83.1527 185.111 83.0994L185.367 84.3154C185.207 84.4114 184.983 84.4861 184.695 84.5394C184.417 84.6034 184.151 84.6354 183.895 84.6354ZM186.41 84.4914V73.2114H188.026V77.8994C188.293 77.4514 188.65 77.1154 189.098 76.8914C189.557 76.6567 190.069 76.5394 190.634 76.5394C192.48 76.5394 193.402 77.5847 193.402 79.6754V84.4914H191.786V79.7714C191.786 79.0994 191.653 78.6087 191.386 78.2994C191.13 77.9901 190.725 77.8354 190.17 77.8354C189.52 77.8354 188.997 78.0434 188.602 78.4594C188.218 78.8647 188.026 79.4034 188.026 80.0754V84.4914H186.41ZM199.293 84.6354C198.013 84.6354 197.005 84.2781 196.269 83.5634C195.533 82.8381 195.165 81.8514 195.165 80.6034C195.165 79.8034 195.325 79.0994 195.645 78.4914C195.976 77.8727 196.429 77.3927 197.005 77.0514C197.581 76.7101 198.242 76.5394 198.989 76.5394C200.066 76.5394 200.914 76.8861 201.533 77.5794C202.152 78.2621 202.461 79.2061 202.461 80.4114V80.9554H196.733C196.85 82.5767 197.709 83.3874 199.309 83.3874C199.757 83.3874 200.194 83.3181 200.621 83.1794C201.058 83.0407 201.469 82.8114 201.853 82.4914L202.333 83.6114C201.981 83.9314 201.528 84.1821 200.973 84.3634C200.418 84.5447 199.858 84.6354 199.293 84.6354ZM199.053 77.6754C198.381 77.6754 197.848 77.8834 197.453 78.2994C197.058 78.7154 196.818 79.2701 196.733 79.9634H201.101C201.069 79.2381 200.877 78.6781 200.525 78.2834C200.173 77.8781 199.682 77.6754 199.053 77.6754ZM204.223 84.4914V76.6834H205.791V78.0754C206.196 77.1474 207.039 76.6301 208.319 76.5234L208.847 76.4914L208.959 77.8674L207.983 77.9634C206.564 78.1021 205.855 78.8327 205.855 80.1554V84.4914H204.223Z" fill="url(#paint1_linear_15_880)" fill-opacity="0.3"/>
</g>
<defs>
<filter id="filter0_d_15_880" x="-3.69226" y="0.84375" width="1312.29" height="180.154" filterUnits="userSpaceOnUse" color-interpolation-filters="sRGB">
<feFlood flood-opacity="0" result="BackgroundImageFix"/>
<feColorMatrix in="SourceAlpha" type="matrix" values="0 0 0 0 0 0 0 0 0 0 0 0 0 0 0 0 0 0 127 0" result="hardAlpha"/>
<feOffset dy="4"/>
<feGaussianBlur stdDeviation="2"/>
<feComposite in2="hardAlpha" operator="out"/>
<feColorMatrix type="matrix" values="0 0 0 0 0 0 0 0 0 0 0 0 0 0 0 0 0 0 0.25 0"/>
<feBlend mode="normal" in2="BackgroundImageFix" result="effect1_dropShadow_15_880"/>
<feBlend mode="normal" in="SourceGraphic" in2="effect1_dropShadow_15_880" result="shape"/>
</filter>
<linearGradient id="paint0_linear_15_880" x1="642.008" y1="135.748" x2="573.995" y2="-30.0474" gradientUnits="userSpaceOnUse">
<stop offset="0.03" stop-color="#667EEA" stop-opacity="0.77"/>
<stop offset="1" stop-color="#904BA2" stop-opacity="0"/>
</linearGradient>
<linearGradient id="paint1_linear_15_880" x1="557.917" y1="116.17" x2="544.437" y2="45.9944" gradientUnits="userSpaceOnUse">
<stop offset="0.03" stop-color="#667EEA" stop-opacity="0.77"/>
<stop offset="1" stop-color="#764BA2" stop-opacity="0"/>
</linearGradient>
</defs>
</svg>
